<svg width="307" height="46" viewBox="0 0 307 46" fill="none" xmlns="http://www.w3.org/2000/svg">
<path d="M17.4749 36.4499C12.4706 36.4499 9.31796 32.7199 9.31796 27.8899C9.31796 23.0599 12.5107 19.2599 17.4749 19.2599C21.078 19.2599 23.7302 21.2599 24.4108 24.4199H33.8689C32.868 16.4199 26.0422 10.8999 17.4749 10.8999C7.6165 10.8999 0 18.1099 0 27.8999C0 37.6899 7.6165 44.8999 17.4749 44.8999C26.0422 44.8999 32.9081 39.3899 33.8689 31.3799H24.4108C23.6902 34.5199 21.0379 36.4499 17.4749 36.4499Z" fill="#FBFCFD"/>
<path d="M93.1594 27.2499C93.1594 17.5299 86.2235 10.9399 77.0457 10.9399C66.6368 10.9399 59.7009 18.1499 59.7009 27.9399C59.7009 37.7299 66.7069 44.9399 77.1758 44.9399C84.8624 44.9399 90.9776 40.9399 92.7491 34.6799H82.8907C81.8698 36.3066 80.0349 37.1199 77.386 37.1199C72.692 37.1199 70.1698 34.6099 69.219 31.3499H92.9493C93.1251 29.9907 93.1953 28.62 93.1594 27.2499ZM69.0889 24.7399C69.4332 22.985 70.3985 21.4126 71.8083 20.3108C73.218 19.2089 74.9778 18.6513 76.7655 18.7399C78.489 18.6156 80.1919 19.1762 81.5039 20.2998C82.8159 21.4234 83.6308 23.0191 83.7715 24.7399H69.0889Z" fill="#FBFCFD"/>
<path d="M160.437 35.61C158.645 36.126 156.796 36.4215 154.932 36.49C151.459 36.49 149.217 34.79 149.217 31.12V19.57H158.225V11.57H149.217V0H139.829V31.19C139.829 39.62 145.004 45.19 152.89 45.19C155.879 45.2217 158.848 44.717 161.658 43.7L160.437 35.61Z" fill="#FBFCFD"/>
<path d="M180.264 10.9399C170.195 10.9399 162.779 18.0799 162.779 27.9399C162.779 37.7999 170.195 45.1999 180.264 45.1999C190.332 45.1999 197.629 37.8499 197.629 27.9299C197.629 18.0099 190.262 10.9399 180.264 10.9399ZM180.454 36.7699C175.38 36.8699 172.097 32.8899 172.097 27.9299C172.097 22.9699 175.299 19.3699 180.264 19.3699C185.808 19.3699 189.081 24.1599 188.12 29.8999C187.837 31.7551 186.917 33.4544 185.519 34.7074C184.121 35.9605 182.33 36.6895 180.454 36.7699Z" fill="#FBFCFD"/>
<path d="M227.594 33.01C226.413 33.0515 225.27 33.4403 224.309 34.1278C223.348 34.8152 222.611 35.7708 222.191 36.8747C221.771 37.9787 221.687 39.1819 221.948 40.3336C222.21 41.4853 222.806 42.5343 223.661 43.3492C224.517 44.1641 225.594 44.7086 226.758 44.9145C227.922 45.1204 229.12 44.9785 230.204 44.5067C231.287 44.0348 232.208 43.254 232.849 42.262C233.49 41.27 233.824 40.1109 233.809 38.93C233.799 38.1309 233.629 37.3418 233.31 36.6091C232.99 35.8765 232.527 35.215 231.948 34.6635C231.369 34.112 230.686 33.6817 229.938 33.3978C229.19 33.1138 228.393 32.982 227.594 33.01Z" fill="#FBFCFD"/>
<path d="M252.225 36.4499C247.221 36.4499 244.058 32.7199 244.058 27.8899C244.058 23.0599 247.251 19.2599 252.225 19.2599C255.828 19.2599 258.48 21.2599 259.161 24.4199H268.609C267.658 16.4199 260.792 10.8999 252.225 10.8999C242.357 10.8999 234.74 18.1099 234.74 27.8999C234.74 37.6899 242.357 44.8999 252.225 44.8999C260.792 44.8999 267.658 39.3899 268.609 31.3799H259.161C258.48 34.5199 255.828 36.4499 252.225 36.4499Z" fill="#FBFCFD"/>
<path d="M288.796 10.9399C278.728 10.9399 271.311 18.0799 271.311 27.9399C271.311 37.7999 278.728 45.1999 288.796 45.1999C298.865 45.1999 306.141 37.8599 306.141 27.9399C306.141 18.0199 298.795 10.9399 288.796 10.9399ZM288.986 36.7699C283.912 36.8699 280.629 32.8899 280.629 27.9299C280.629 22.9699 283.832 19.3699 288.796 19.3699C294.341 19.3699 297.614 24.1599 296.653 29.8999C296.368 31.7543 295.448 33.4526 294.05 34.7053C292.652 35.958 290.862 36.6876 288.986 36.7699Z" fill="#FBFCFD"/>
<path d="M210.96 15.87V11.62H201.502V44.17H210.96V29.79C210.952 27.6581 211.668 25.5864 212.989 23.9122C214.31 22.2381 216.159 21.0601 218.236 20.57C219.598 20.2672 220.985 20.0931 222.38 20.05V11.05C217.566 11.08 213.812 12.64 210.96 15.87Z" fill="#FBFCFD"/>
<path d="M46.7798 15.87V11.62H37.3318V44.17H46.7798V29.79C46.7724 27.6581 47.4875 25.5864 48.8087 23.9122C50.1299 22.2381 51.9794 21.0601 54.0561 20.57C55.4213 20.2679 56.8119 20.0938 58.2096 20.05V11.05C53.3755 11.08 49.6223 12.64 46.7798 15.87Z" fill="#FBFCFD"/>
<path d="M138.138 44.1699H128.269L126.748 38.5799C123.809 40.8975 120.575 42.8143 117.13 44.2799L115.428 45.0199L113.687 44.4199C110.092 43.1437 106.783 41.1717 103.951 38.6168C101.119 36.0618 98.8193 32.9739 97.1829 29.5299C95.6726 26.4735 95.4242 22.9466 96.4913 19.7089C97.5583 16.4712 99.8554 13.7818 102.888 12.2199C104.387 11.4658 106.025 11.0238 107.7 10.9207C109.376 10.8175 111.055 11.0554 112.636 11.6199C113.633 12.0094 114.57 12.538 115.418 13.1899C116.415 12.5324 117.491 12.0048 118.621 11.6199C120.202 11.0554 121.881 10.8175 123.557 10.9207C125.233 11.0238 126.87 11.4658 128.369 12.2199C129.869 12.9723 131.202 14.016 132.293 15.2899L125.077 21.4899C124.796 21.1656 124.457 20.8975 124.076 20.6999C123.797 20.5594 123.495 20.4713 123.185 20.4399C122.805 20.3699 119.182 20.0099 115.469 25.2499C111.765 20.0099 108.553 20.3699 108.172 20.4399C107.865 20.4697 107.566 20.5579 107.292 20.6999C106.889 20.9059 106.532 21.1895 106.24 21.5342C105.948 21.879 105.727 22.2781 105.59 22.7086C105.453 23.1391 105.403 23.5924 105.443 24.0423C105.482 24.4922 105.611 24.9298 105.82 25.3299C107.867 29.4747 111.282 32.7875 115.489 34.7099C119.111 32.8187 122.325 30.2328 124.947 27.0999C125.666 26.1744 126.674 25.5153 127.811 25.2272C128.948 24.9392 130.148 25.0387 131.222 25.5099C132.221 25.9582 133.049 26.7155 133.584 27.6699C133.79 28.0278 133.948 28.4111 134.054 28.8099L138.138 44.1699Z" fill="#FBFCFD"/>
</svg>
